<svg width="300" height="300" viewBox="0 0 300 300" fill="none" xmlns="http://www.w3.org/2000/svg">
<rect width="300" height="300" fill="#0D0C0C"/>
<rect x="42" y="42" width="67" height="67" fill="black" stroke="#1ECDF3" stroke-width="8"/>
<rect x="192" y="42" width="67" height="67" fill="black" stroke="#1ECDF3" stroke-width="8"/>
<rect x="42" y="192" width="67" height="67" fill="black" stroke="#1ECDF3" stroke-width="8"/>
<rect x="192" y="192" width="67" height="67" fill="black" stroke="#1ECDF3" stroke-width="8"/>
<path d="M80.1875 152.375H224.562" stroke="#1ECDF3" stroke-width="8"/>
<path d="M152.375 224.562V80.1875" stroke="#1ECDF3" stroke-width="8"/>
<path d="M193.625 194.562L106.438 106.438" stroke="#1ECDF3" stroke-width="8" stroke-linejoin="bevel"/>
<path d="M193.625 106.438L106.438 194.563" stroke="#1ECDF3" stroke-width="8"/>
<path d="M86.75 155.188L40.8125 110.187" stroke="#1ECDF3" stroke-width="8" stroke-linejoin="bevel"/>
<path d="M260.188 191.75L218 149.563" stroke="#1ECDF3" stroke-width="8"/>
<path d="M190.812 260.188L149.563 218" stroke="#1ECDF3" stroke-width="8"/>
<path d="M40.8125 190.812L86.75 150.5" stroke="#1ECDF3" stroke-width="8"/>
<path d="M149.562 85.8125L191.75 40.8125" stroke="#1ECDF3" stroke-width="8"/>
<path d="M217.062 153.312L260.188 110.187" stroke="#1ECDF3" stroke-width="8"/>
<path d="M110.188 260.188L151.438 218" stroke="#1ECDF3" stroke-width="8"/>
<path d="M155.188 85.8125L110.188 40.8125" stroke="#1ECDF3" stroke-width="8"/>
</svg>
