<svg width="300" height="300" viewBox="0 0 300 300" fill="none" xmlns="http://www.w3.org/2000/svg">
<g clip-path="url(#clip0)">
<rect width="300" height="300" fill="#1ECDF3"/>
<path d="M82.5831 32.8866L141.333 116.372L150.47 14.6965L159.606 116.372L218.356 32.8866L175.431 125.508L268.053 82.5831L184.568 141.333L286.243 150.47L184.568 159.606L268.053 218.356L175.431 175.431L218.356 268.053L159.606 184.568L150.47 286.243L141.333 184.568L82.5831 268.053L125.508 175.431L32.8866 218.356L116.372 159.606L14.6965 150.47L116.372 141.333L32.8866 82.5831L125.508 125.508L82.5831 32.8866Z" fill="white"/>
<path d="M92.7076 49.3495L151.739 68.951L210.771 49.3495L223.312 110.273L269.803 151.596L223.312 192.918L210.771 253.842L151.739 234.24L92.7076 253.842L80.1671 192.918L33.6757 151.596L80.1671 110.273L92.7076 49.3495Z" fill="white"/>
<path d="M99.2912 62.8993L150.273 84.9261L201.255 62.8993L207.671 118.064L252.237 151.203L207.671 184.341L201.255 239.506L150.273 217.479L99.2912 239.506L92.876 184.341L48.3092 151.203L92.876 118.064L99.2912 62.8993Z" fill="#1ECDF3"/>
<path d="M99.2912 62.8993L150.273 122.653L201.255 62.8993L174.998 136.928L252.237 151.203L174.998 165.478L201.255 239.506L150.273 179.753L99.2912 239.506L125.548 165.478L48.3092 151.203L125.548 136.928L99.2912 62.8993Z" fill="white"/>
</g>
<defs>
<clipPath id="clip0">
<rect width="300" height="300" fill="white"/>
</clipPath>
</defs>
</svg>
