<svg id="Layer_1" data-name="Layer 1" xmlns="http://www.w3.org/2000/svg" xmlns:xlink="http://www.w3.org/1999/xlink" viewBox="0 0 165.51 165.51"><defs><style>.cls-1{fill:none;}.cls-2{fill:green;}.cls-3{clip-path:url(#clip-path);}.cls-4{fill:#fff;}</style><clipPath id="clip-path" transform="translate(0 -0.49)"><path class="cls-1" d="M103.05,107.1l-1.64-.86c-2.78-1.17-3.77-3.4-3.79-6.22V54.69a6.17,6.17,0,0,0-7.45-6.41L60.4,58.57c-.94.36.91,7.91.26,8.64l18.72-6.14a6.17,6.17,0,0,1,7.45,6.41v35.31c0,2.83,1,5,3.8,6.23l1.64.86a6.06,6.06,0,0,1,3.27,5.71v1.89l4.77,1.66a6.33,6.33,0,0,0,2.74-12Z"/></clipPath></defs><title>square-one-mob</title><rect class="cls-2" width="165.51" height="165.51"/><g class="cls-3"><rect class="cls-4" x="46.28" y="55.88" width="61.84" height="1.67" transform="translate(-13.61 25.74) rotate(-17.74)"/><rect class="cls-4" x="47.99" y="59.06" width="60.09" height="1.67" transform="translate(-14.54 26.15) rotate(-17.74)"/><rect class="cls-4" x="49.7" y="62.24" width="58.34" height="1.67" transform="translate(-15.54 26.73) rotate(-17.85)"/><rect class="cls-4" x="51.42" y="65.42" width="56.58" height="1.67" transform="translate(-16.47 27.14) rotate(-17.85)"/><rect class="cls-4" x="53.13" y="68.6" width="54.83" height="1.67" transform="translate(-17.41 27.55) rotate(-17.85)"/><rect class="cls-4" x="54.84" y="71.78" width="53.08" height="1.67" transform="translate(-18.34 27.96) rotate(-17.85)"/><rect class="cls-4" x="56.56" y="74.95" width="51.32" height="1.67" transform="translate(-19.27 28.37) rotate(-17.85)"/><rect class="cls-4" x="58.27" y="78.13" width="49.57" height="1.67" transform="translate(-20.22 28.81) rotate(-17.87)"/><rect class="cls-4" x="59.98" y="81.31" width="47.82" height="1.67" transform="translate(-21.16 29.22) rotate(-17.87)"/><rect class="cls-4" x="61.7" y="84.49" width="46.06" height="1.67" transform="translate(-22.09 29.63) rotate(-17.87)"/><rect class="cls-4" x="63.41" y="87.67" width="44.31" height="1.67" transform="translate(-23.03 30.04) rotate(-17.87)"/><rect class="cls-4" x="65.12" y="90.85" width="42.55" height="1.67" transform="translate(-24.08 30.65) rotate(-17.97)"/><rect class="cls-4" x="66.84" y="94.03" width="40.8" height="1.67" transform="translate(-25.02 31.06) rotate(-17.97)"/><rect class="cls-4" x="68.55" y="97.21" width="39.05" height="1.67" transform="translate(-25.96 31.48) rotate(-17.97)"/><rect class="cls-4" x="70.26" y="100.38" width="37.29" height="1.67" transform="translate(-26.9 31.89) rotate(-17.97)"/><rect class="cls-4" x="71.97" y="103.56" width="35.54" height="1.67" transform="translate(-27.84 32.3) rotate(-17.97)"/><rect class="cls-4" x="73.69" y="106.74" width="33.79" height="1.67" transform="translate(-28.92 32.94) rotate(-18.08)"/><rect class="cls-4" x="75.4" y="109.92" width="32.03" height="1.67" transform="translate(-29.86 33.36) rotate(-18.08)"/><rect class="cls-4" x="77.11" y="113.1" width="30.28" height="1.67" transform="translate(-30.81 33.77) rotate(-18.08)"/><rect class="cls-4" x="78.83" y="116.28" width="28.53" height="1.67" transform="translate(-31.9 34.42) rotate(-18.19)"/></g><path class="cls-4" d="M100.31,120.81H66.81a8,8,0,0,1-3.51-15.19c.33-.21,1.67-1.05,2.26-1.51a3.37,3.37,0,0,0,1.56-2.62l-.21-27.4a1.77,1.77,0,0,0-.86-1.66A26.4,26.4,0,0,0,63.29,71l-1.21-.6a8.7,8.7,0,0,1-1-.57,8,8,0,0,1,1.42-14.16l27.46-9a9.6,9.6,0,0,1,1.5-.13c4.55,0,7.86,3.44,7.87,8.17V100c0,2.47.86,3.87,2.78,4.69l1.77.91a8,8,0,0,1-3.52,15.19Zm-9.75-70.9-27,8.85A4.66,4.66,0,0,0,62.85,67a3.91,3.91,0,0,0,.67.36l1.24.62a30.53,30.53,0,0,1,3.14,1.71,5.09,5.09,0,0,1,2.35,4.39l.2,27.49a6.72,6.72,0,0,1-2.83,5.2c-.86.67-2.53,1.69-2.72,1.81a4.72,4.72,0,0,0-2.76,4.26,4.67,4.67,0,0,0,4.67,4.66h33.5a4.66,4.66,0,0,0,2-8.86l-1.69-.89c-3-1.28-4.66-3.89-4.69-7.69V54.69A4.52,4.52,0,0,0,90.56,49.91Z" transform="translate(0 -0.49)"/></svg>